# xmcd
#
# Track frame offsets:
#	150
#	17408
#	35218
#	54820
#	66608
#	86787
#	109014
#	127575
#	145549
#	168598
#	190209
#	206410
#
# Disc length: 3046 seconds
#
# Revision: 1
# Processed by: cddbd v1.5.1PL0 Copyright (c) Steve Scherf et al.
# Submitted via: audiograbber 1.83.01
#
DISCID=9f0be40c
DTITLE=T.R - Papis Mixtape
DYEAR=2004
DGENRE=Hip-Hop
TTITLE0=Rulla Fett (featuring Chords)
TTITLE1=Ingen É Väl Perfekt (featuring Organism 12)
TTITLE2=Runt Höör (featuring Profet and Professor P)
TTITLE3=L.U.N.D (featuring SCZ)
TTITLE4=Visa Var Ni Kommer Från (featuring Sebbe and Organism 12)
TTITLE5=Papi Pallar Tji (featuring Sebbe)
TTITLE6=Varför (featuring Profet and Professor P)
TTITLE7=Mördar MCs 2004 (featuring Nicolas L)
TTITLE8=Gör Din Graj (featuring Sebbe)
TTITLE9=3 16 3 B (featuring Organism 12 and Sebbe)
TTITLE10=Livet 2 (featuring Organism 12 and Sebbe)
TTITLE11=Dåtid, Nutid, Framtid (featuring Sebbe)
EXTD=
EXTT0=
EXTT1=
EXTT2=
EXTT3=
EXTT4=
EXTT5=
EXTT6=
EXTT7=
EXTT8=
EXTT9=
EXTT10=
EXTT11=
PLAYORDER=
